<?xml version="1.0" encoding="UTF-8" standalone="no"?>
<!-- Created with Inkscape (http://www.inkscape.org/) -->

<svg
    version="1.1"
    id="svg1"
    width="1080"
    height="1080"
    viewBox="0 0 1080 1080"
    sodipodi:docname="nexOrbsLogoWhite.svg"
    inkscape:version="1.4.2 (ebf0e940d0, 2025-05-08)"
    xmlns:inkscape="http://www.inkscape.org/namespaces/inkscape"
    xmlns:sodipodi="http://sodipodi.sourceforge.net/DTD/sodipodi-0.dtd"
    xmlns="http://www.w3.org/2000/svg"
    xmlns:svg="http://www.w3.org/2000/svg"
  >
    <defs id="defs1" />
    <sodipodi:namedview
      id="namedview1"
      pagecolor="#505050"
      bordercolor="#eeeeee"
      borderopacity="1"
      inkscape:showpageshadow="0"
      inkscape:pageopacity="0"
      inkscape:pagecheckerboard="0"
      inkscape:deskcolor="#505050"
      showguides="true"
      inkscape:zoom="0.5"
      inkscape:cx="317"
      inkscape:cy="629"
      inkscape:window-width="1908"
      inkscape:window-height="1004"
      inkscape:window-x="0"
      inkscape:window-y="0"
      inkscape:window-maximized="1"
      inkscape:current-layer="g1"
    />
    <g
      inkscape:groupmode="layer"
      inkscape:label="Image"
      id="g1"
      transform="rotate(0.34504846,540.50006,540.50101)"
      style="display: inline"
    >
      <path
        d="m 540.00084,-9.3547362e-4 c -93.93243,0 -179.89577,62.61112947362 -240.20848,164.26401547362 -60.31271,101.65289 -92.79166,235.87128 -92.79166,375.7375 0,5.26274 0.0462,10.51781 0.1379,15.76312 8.14488,8.17055 16.77639,16.30223 25.85618,24.36427 11.45183,-13.76684 23.47141,-27.61854 36.00657,-41.5047 0.21898,-129.62656 31.341,-253.77956 84.11335,-342.7237 52.95924,-89.25911 120.62624,-133.899371 186.88452,-133.899371 64.29695,0 129.92255,42.037311 182.14546,126.090921 1.04151,-0.49927 2.08036,-0.99498 3.11806,-1.48756 18.98347,-9.01116 37.47167,-16.243 55.19124,-21.92261 -0.0824,-0.13919 -0.16415,-0.27743 -0.24665,-0.41649 C 719.89462,62.61157 633.93327,-9.3547362e-4 540.00084,-9.3547362e-4 Z M 816.27271,236.63451 c -0.86397,0.23879 -1.73519,0.48528 -2.61278,0.73841 0.87665,-0.25274 1.74788,-0.49754 2.6128,-0.73645 z m 6.29216,15.73779 c -17.25511,4.72641 -36.29521,11.53819 -56.13459,20.95562 -0.66949,0.3178 -1.3397,0.63797 -2.01183,0.9594 29.82513,77.76049 46.58148,170.2819 46.58148,265.71257 0,90.05598 -14.92279,177.52214 -41.66803,252.43716 8.14855,0.0137 16.1285,-0.17076 23.92092,-0.55618 15.60241,-0.7717 30.03971,-2.29757 43.33911,-4.46811 23.9016,-76.00874 36.40717,-160.62387 36.40717,-247.41319 0,-102.42994 -17.42015,-201.82871 -50.43423,-287.62727 z m -63.55683,5.67387 c -0.30545,0.14506 -0.61134,0.29135 -0.9173,0.43717 0.003,0.007 0.005,0.0127 0.008,0.0195 0.23164,-0.11038 0.46394,-0.22042 0.69529,-0.33036 0.065,-0.0309 0.14058,-0.0807 0.21408,-0.12629 z M 216.40785,668.87595 c 0.005,0.0359 0.0109,0.0715 0.0163,0.10733 2.10928,1.82734 4.1607,3.68076 6.44301,5.4359 1.9161,1.47352 4.01128,2.84616 6.14453,4.19745 -4.24924,-3.22412 -8.45064,-6.47251 -12.60381,-9.74068 z m 20.30531,37.01511 c -2.33946,3.44191 -4.62055,6.85828 -6.84075,10.24841 1.98709,-3.03418 4.79945,-6.36764 7.60577,-9.70223 -0.25554,-0.18206 -0.5098,-0.36394 -0.76502,-0.54618 z m 13.93003,9.74441 c -2.24137,3.2989 -4.42539,6.57222 -6.55038,9.81697 -4.50263,6.87528 -8.63687,13.67023 -12.42073,20.33493 15.64217,62.36816 38.53088,120.07724 68.1204,169.94832 60.31271,101.65291 146.276,164.26341 240.20843,164.26341 93.93243,0 179.89383,-62.6092 240.20654,-164.26203 5.36118,-9.0359 10.50232,-18.32933 15.42039,-27.86095 -22.82437,1.0327 -46.37554,0.71434 -70.46566,-0.89597 -52.69944,87.34002 -119.61956,131.01975 -185.1616,131.01975 -66.25828,0 -133.92669,-44.64124 -186.88593,-133.90035 -23.85907,-40.2128 -43.29338,-87.62255 -57.44649,-139.4808 -15.45606,-9.34359 -30.48232,-19.01497 -45.02497,-28.98328 z m 580.0372,89.72728 c -11.37934,1.58423 -23.27664,2.81845 -35.97978,3.46674 12.70117,-0.64462 24.67065,-1.81811 35.97015,-3.44325 0.003,-0.008 0.007,-0.0152 0.01,-0.0235 z"
        style="
          display: inline;
          overflow: visible;
          opacity: 1;
          vector-effect: none;
          stroke-linecap: square;
          paint-order: markers stroke fill;
          enable-background: accumulate;
          stop-color: #000000;
          stop-opacity: 1;
          fill: #0C0C0C;
          fill-opacity: 0.99999076;
        "
        id="path81"
      />
      <path
        d="M 255.34959,213.14294 C 157.12156,223.18595 81.210311,262.0914 51.496158,331.17546 19.202132,406.2576 50.314957,496.43187 122.52305,580.61357 c 72.20809,84.18171 182.20024,159.92714 307.71372,213.91249 125.51348,53.98534 256.14652,81.73736 366.91903,76.25852 110.77257,-5.4788 197.63201,-44.91212 229.9261,-119.99426 32.294,-75.08215 1.1812,-165.25834 -71.02693,-249.44007 -21.18359,-24.69627 -45.61983,-48.66573 -72.74485,-71.57298 3.66817,29.78976 5.84287,60.16146 6.48669,90.85126 6.74104,6.9987 13.14708,14.034 19.19766,21.08789 63.7601,74.33287 80.18614,140.27705 61.1322,184.57661 -19.05395,44.29955 -78.22063,77.72963 -176.0333,82.56746 -97.81272,4.83782 -221.23674,-20.48324 -339.3593,-71.28964 C 336.61149,686.76445 233.34365,614.58027 169.58354,540.2474 105.82344,465.91454 89.395459,399.97231 108.44941,355.67276 c 15.18776,-35.31086 55.86357,-63.7162 121.28135,-76.23957 7.50783,-22.91359 16.0548,-45.06502 25.61883,-66.29025 z m 107.64426,-0.36897 c -10.5009,18.63058 -20.08914,38.84811 -28.66049,60.35534 58.90911,2.73464 124.24798,14.65984 190.61047,34.95821 21.43224,-15.62522 42.79338,-30.36393 63.90722,-44.13957 -76.70393,-27.62623 -153.84528,-45.20481 -225.8572,-51.17398 z m 316.00898,88.43057 c -20.47237,12.21755 -41.50369,25.58455 -62.83099,39.92988 21.31053,-14.32835 42.35704,-27.69813 62.84861,-39.92217 -0.006,-0.003 -0.0118,-0.005 -0.0176,-0.008 z m 18.26208,8.76127 c -20.38768,11.82824 -41.43464,24.8859 -62.84996,39.05108 55.13622,24.49339 106.82201,53.58915 152.49099,85.28634 -3.94064,-29.12302 -9.46504,-57.44832 -16.42746,-84.55299 -23.46375,-14.05273 -47.93577,-27.35506 -73.21357,-39.78443 z"
        style="
          display: inline;
          overflow: visible;
          opacity: 1;
          vector-effect: none;
          stroke-linecap: square;
          paint-order: markers stroke fill;
          enable-background: accumulate;
          stop-color: #000000;
          stop-opacity: 1;
          fill: #0C0C0C;
          fill-opacity: 0.99999076;
        "
        id="path78"
      />
      <path
        d="m 886.41289,164.34948 c -7.88697,-0.18171 -16.2949,0.11462 -25.26274,0.87871 -35.87134,3.05635 -80.49995,13.90098 -128.59753,36.73214 -92.89005,44.09345 -202.5844,116.23037 -306.3428,206.70017 -68.36693,59.61099 -130.03391,122.11705 -180.3372,182.60301 15.33101,12.91367 31.78665,25.60524 49.20204,37.94071 47.54376,-56.8745 106.52584,-116.82938 171.8802,-173.81364 99.70426,-86.93488 205.96135,-156.49016 292.18555,-197.41943 41.45959,-19.6802 79.588,-28.60793 107.27444,-30.9669 6.92161,-0.58975 13.20254,-0.75221 18.61181,-0.62382 5.40928,0.12839 9.94543,0.54765 13.37416,1.11675 0.12005,0.0199 0.17272,0.0624 0.28957,0.0842 0.003,0.0612 0.02,0.0903 0.0224,0.15222 0.26302,6.71437 -0.5774,17.60617 -3.42735,30.88448 -4.42924,20.63634 -13.56311,47.17413 -29.15467,76.56563 5.53157,22.70926 10.11889,45.98355 13.74412,69.68412 3.65807,2.94281 7.2739,5.90611 10.84669,8.88797 4.43806,-6.5636 8.69879,-13.07686 12.7752,-19.53042 28.73396,-45.49006 44.97078,-87.95009 52.40717,-122.59712 3.71819,-17.32352 5.29812,-32.63983 4.76214,-46.32249 -0.53598,-13.68265 -0.92182,-26.0227 -12.98598,-40.11979 -12.73243,-14.87799 -25.35389,-16.56641 -39.12792,-18.8526 -6.88701,-1.14309 -14.25233,-1.80218 -22.1393,-1.98389 z M 783.43667,452.71313 c -47.00554,56.43298 -105.41481,115.78701 -169.29457,171.48553 -44.68745,38.9642 -90.42193,74.30595 -135.04902,105.1316 23.6006,9.59065 47.35881,18.13767 71.0012,25.60608 34.95813,-25.68384 70.14302,-53.79375 104.79482,-84.00761 50.4439,-43.98342 97.59266,-89.96333 139.09543,-135.70536 -0.15927,-26.35275 -1.63393,-52.46439 -4.32955,-78.06128 -2.05887,-1.48763 -4.13162,-2.97131 -6.21831,-4.44896 z M 187.54234,667.9443 c -3.27022,4.77063 -6.44999,9.51408 -9.5356,14.22565 -29.04147,44.34484 -46.31081,86.5421 -54.26831,121.98723 -3.97875,17.72256 -5.70241,33.7233 -4.88237,48.41114 0.82003,14.68784 3.05881,28.92327 14.96004,42.29153 12.12685,13.6217 25.70694,16.88891 39.97032,19.27527 14.26338,2.38636 30.18895,2.54061 48.17342,0.76068 15.96482,-1.58004 33.52406,-4.74615 52.29763,-9.76239 -9.86253,-18.25488 -18.88957,-37.36507 -27.0657,-57.20523 -11.47072,2.6323 -22.00335,4.34701 -31.33797,5.27085 -13.78479,1.36428 -24.99173,0.93054 -31.83585,-0.21453 -1.1701,-0.19576 -1.96419,-0.47785 -2.81898,-0.7428 -0.1776,-0.92652 -0.36918,-1.84701 -0.44072,-3.12826 -0.38508,-6.89724 0.46503,-17.97554 3.47323,-31.375 6.01641,-26.79892 20.36971,-63.01112 45.64093,-101.59897 2.2202,-3.39014 4.50148,-6.80633 6.84075,-10.24841 -17.15112,-12.24708 -33.57353,-24.91456 -49.17082,-37.94676 z m 193.63234,122.90449 c -15.01023,8.45888 -29.66771,16.24621 -43.87207,23.32127 8.22027,19.80802 17.31648,38.46079 27.20518,55.71804 27.81499,-13.82339 56.89023,-29.98994 86.70495,-48.28084 -9.25217,-3.68169 -18.48582,-7.50433 -27.69259,-11.4643 -14.32185,-6.16006 -28.44797,-12.59719 -42.34547,-19.29417 z"
        style="
          display: inline;
          overflow: visible;
          opacity: 1;
          vector-effect: none;
          stroke-linecap: square;
          paint-order: markers stroke fill;
          enable-background: accumulate;
          stop-color: #000000;
          stop-opacity: 1;
          fill: #0C0C0C;
          fill-opacity: 0.99999076;
        "
        id="path52"
      />
      <path
        style="
          display: inline;
          overflow: visible;
          opacity: 1;
          fill: #0C0C0C;
          fill-opacity: 0;
          stroke: none;
          stroke-width: 34;
          stroke-linecap: square;
          stroke-dasharray: none;
          stroke-opacity: 1;
          paint-order: markers stroke fill;
          enable-background: accumulate;
          stop-color: #000000;
          stop-opacity: 1;
        "
        d="m 886.41211,164.34961 c -7.88697,-0.18171 -16.29388,0.11482 -25.26172,0.87891 -35.87134,3.05635 -80.50008,13.90126 -128.59766,36.73242 -92.89005,44.09345 -202.58535,116.22942 -306.34375,206.69922 -103.46987,90.21821 -191.59162,187.06688 -248.20312,273.50976 -29.04147,44.34484 -46.31008,86.5412 -54.26758,121.98633 -3.97875,17.72256 -5.70285,33.72427 -4.88281,48.41211 0.82003,14.68784 3.05971,28.92275 14.96094,42.29101 12.12685,13.6217 25.70732,16.88904 39.9707,19.2754 14.26338,2.38636 30.1874,2.54164 48.17187,0.76171 35.96896,-3.55985 80.0371,-15.169 127.83399,-37.85742 92.89107,-44.09392 201.38101,-115.67768 305.0957,-206.10937 103.52002,-90.26194 193.16298,-188.92839 248.60742,-276.70508 28.73396,-45.49006 44.97182,-87.94867 52.40821,-122.5957 3.71819,-17.32352 5.2977,-32.63961 4.76172,-46.32227 -0.53598,-13.68265 -0.92217,-26.024 -12.98633,-40.12109 -12.73243,-14.87799 -25.35293,-16.56538 -39.12696,-18.85157 -6.88701,-1.14309 -14.25365,-1.80266 -22.14062,-1.98437 z m -1.38477,62.03125 c 5.40928,0.12839 9.94432,0.54809 13.37305,1.11719 0.12005,0.0199 0.17221,0.0622 0.28906,0.084 0.003,0.0612 0.021,0.0904 0.0234,0.15234 0.26302,6.71437 -0.57778,17.60451 -3.42773,30.88282 -5.69992,26.55661 -19.19092,62.88883 -44.20899,102.49609 -50.439,79.85233 -136.99093,175.94319 -236.93359,263.08594 -99.74797,86.97299 -204.71232,155.90128 -290.93555,196.83008 -41.76026,19.82293 -79.78394,29.44136 -107.35351,32.16992 -13.78479,1.36428 -24.99182,0.93022 -31.83594,-0.21485 -1.1701,-0.19576 -1.96357,-0.47723 -2.81836,-0.74218 -0.1776,-0.92652 -0.36987,-1.84766 -0.44141,-3.12891 -0.38508,-6.89724 0.46641,-17.97554 3.47461,-31.375 6.01641,-26.79892 20.36941,-63.01176 45.64063,-101.59961 52.01384,-79.42249 137.08924,-173.5616 237.08203,-260.74805 99.70426,-86.93488 205.96134,-156.49065 292.18554,-197.41992 41.45959,-19.6802 79.587,-28.60782 107.27344,-30.96679 6.92161,-0.58975 13.20401,-0.75144 18.61328,-0.62305 z"
        id="path30"
        sodipodi:insensitive="true"
      />
      <path
        style="
          display: inline;
          overflow: visible;
          opacity: 1;
          fill: #0C0C0C;
          fill-opacity: 0;
          stroke: #fa0808;
          stroke-width: 0;
          stroke-linecap: square;
          stroke-dasharray: none;
          stroke-opacity: 1;
          paint-order: markers stroke fill;
          enable-background: accumulate;
          stop-color: #000000;
          stop-opacity: 1;
        "
        d="M 540,0 C 446.06757,0 360.10568,62.610786 299.79297,164.26367 239.48026,265.91656 207,400.13378 207,540 207,679.86622 239.48026,814.08344 299.79297,915.73633 360.10568,1017.3892 446.06757,1080 540,1080 633.93243,1080 719.89432,1017.3892 780.20703,915.73633 840.51974,814.08344 873,679.86622 873,540 873,400.13378 840.51974,265.91656 780.20703,164.26367 719.89432,62.610786 633.93243,0 540,0 Z m 0,62 c 66.25828,0 133.92553,44.64128 186.88477,133.90039 C 779.844,285.1595 811,409.87588 811,540 811,670.12412 779.844,794.8405 726.88477,884.09961 673.92553,973.35872 606.25828,1018 540,1018 473.74172,1018 406.07447,973.35872 353.11523,884.09961 300.156,794.8405 269,670.12412 269,540 269,409.87588 300.156,285.1595 353.11523,195.90039 406.07447,106.64128 473.74172,62 540,62 Z"
        id="path31"
        sodipodi:insensitive="true"
      />
      <path
        style="
          display: inline;
          overflow: visible;
          opacity: 1;
          fill: #0C0C0C;
          fill-opacity: 0;
          stroke: none;
          stroke-width: 34;
          stroke-linecap: square;
          stroke-dasharray: none;
          stroke-opacity: 1;
          paint-order: markers stroke fill;
          enable-background: accumulate;
          stop-color: #000000;
          stop-opacity: 1;
        "
        d="m -283.88086,178.16016 c -81.73269,0 -152.27693,64.21045 -201.07812,163.80468 -48.8012,99.59424 -74.92188,230.56424 -74.92188,367.19532 0,136.63107 26.12068,267.59912 74.92188,367.19334 48.80119,99.5943 119.34543,163.8067 201.07812,163.8067 81.7327,0 152.27889,-64.2124 201.080079,-163.8067 48.801193,-99.59422 74.9199216,-230.56227 74.9199216,-367.19334 0,-136.63108 -26.1187286,-267.60108 -74.9199216,-367.19532 C -131.60197,242.37061 -202.14816,178.16016 -283.88086,178.16016 Z m 0,61.99804 c 48.22348,0 102.3126,41.14569 145.4043,129.08789 43.091694,87.94221 68.595701,211.32856 68.595701,339.91407 0,128.5855 -25.504007,251.9699 -68.595701,339.91214 -43.0917,87.9422 -97.18082,129.0879 -145.4043,129.0879 -48.22347,0 -102.31065,-41.1457 -145.40234,-129.0879 -43.0917,-87.94224 -68.59766,-211.32664 -68.59766,-339.91214 0,-128.58551 25.50596,-251.97186 68.59766,-339.91407 43.09169,-87.9422 97.17887,-129.08789 145.40234,-129.08789 z"
        id="path32"
        transform="rotate(-66.72669)"
        sodipodi:insensitive="true"
      />
      <circle
        style="
          fill: none;
          fill-opacity: 0.374798;
          stroke: #0C0C0C;
          stroke-width: 63.9997;
          stroke-linecap: square;
          stroke-dasharray: none;
          stroke-opacity: 1;
          paint-order: markers stroke fill;
        "
        id="path82"
        cx="536.73517"
        cy="543.24518"
        r="508.00012"
        transform="rotate(-0.34504846)"
      />
      <circle
        style="
          fill: #0C0C0C;
          fill-opacity: 0.98780775;
          stroke: none;
          stroke-width: 0;
          stroke-linecap: square;
          stroke-dasharray: none;
          stroke-opacity: 1;
          paint-order: markers stroke fill;
        "
        id="path84"
        cx="247.95735"
        cy="395.53513"
        r="55"
        transform="rotate(-0.34504846)"
      />
      <circle
        style="
          display: inline;
          fill: #0C0C0C;
          fill-opacity: 0.98780775;
          stroke: none;
          stroke-width: 0;
          stroke-linecap: square;
          stroke-dasharray: none;
          stroke-opacity: 1;
          paint-order: markers stroke fill;
        "
        id="path84-1"
        cx="456.42148"
        cy="423.31628"
        r="55"
        transform="rotate(-0.34504846)"
      />
      <circle
        style="
          display: inline;
          fill: #0C0C0C;
          fill-opacity: 1;
          stroke: none;
          stroke-width: 0;
          stroke-linecap: square;
          stroke-dasharray: none;
          stroke-opacity: 1;
          paint-order: markers stroke fill;
        "
        id="path84-3"
        cx="948.73523"
        cy="549.24518"
        r="55"
        transform="rotate(-0.34504846)"
      />
      <circle
        style="
          display: inline;
          fill: #0C0C0C;
          fill-opacity: 0.98780775;
          stroke: none;
          stroke-width: 0;
          stroke-linecap: square;
          stroke-dasharray: none;
          stroke-opacity: 1;
          paint-order: markers stroke fill;
        "
        id="path84-6"
        cx="619.73523"
        cy="831.74518"
        r="55"
        transform="rotate(-0.34504846)"
      />
    </g>
  </svg>
