<?xml version="1.0" encoding="UTF-8"?>
<svg version="1.1" xmlns="http://www.w3.org/2000/svg" width="815" height="815">
<path d="M0 0 C1.74862587 -0.00855011 1.74862587 -0.00855011 3.53257751 -0.01727295 C5.99412139 -0.02667125 8.45567756 -0.03323621 10.91723633 -0.03710938 C14.5902461 -0.04671264 18.26267038 -0.07774423 21.93554688 -0.109375 C38.03473777 -0.18168466 53.65052589 0.99075856 69.58984375 3.203125 C71.12753257 3.40513925 72.66536003 3.60610298 74.20336914 3.80566406 C109.2129992 8.43620149 142.09945086 18.68626418 174.27099609 33.17822266 C177.07481674 34.41747714 179.91918061 35.53333662 182.77734375 36.640625 C210.48814027 48.13339754 236.14825619 66.71775881 259.58984375 85.203125 C260.4509375 85.8734375 261.31203125 86.54375 262.19921875 87.234375 C264.47882075 89.1116943 266.50372463 91.11700588 268.58984375 93.203125 C269.99405927 94.30254955 271.41191741 95.38467662 272.83984375 96.453125 C277.96353501 100.49976405 282.58800751 104.97584517 287.21484375 109.578125 C288.30007324 110.64981934 288.30007324 110.64981934 289.40722656 111.74316406 C290.41414551 112.75588379 290.41414551 112.75588379 291.44140625 113.7890625 C292.35140381 114.70244385 292.35140381 114.70244385 293.27978516 115.63427734 C294.58984375 117.203125 294.58984375 117.203125 294.58984375 119.203125 C295.24984375 119.203125 295.90984375 119.203125 296.58984375 119.203125 C298.30965258 120.8148983 299.96718644 122.49358155 301.58984375 124.203125 C302.42902344 125.0796875 303.26820313 125.95625 304.1328125 126.859375 C310.21149818 133.39598235 315.85427196 140.13915373 321.1796875 147.30859375 C322.73328083 149.39583133 324.30239205 151.47097183 325.87109375 153.546875 C336.22759769 167.33528262 346.76605321 181.46717403 354.09375 197.14453125 C355.59089626 200.20527673 357.24347046 203.11950655 358.95019531 206.06591797 C398.30996745 274.52760657 411.32700112 360.51056688 400.58984375 438.203125 C400.44530762 439.25693359 400.30077148 440.31074219 400.15185547 441.39648438 C396.51222176 467.01499138 389.61459622 491.64458266 381.58984375 516.203125 C381.30608887 517.07501465 381.02233398 517.9469043 380.72998047 518.84521484 C369.04113333 554.38673163 350.25666782 589.99341751 326.4140625 618.9140625 C324.53415614 621.27300282 322.84213279 623.70517599 321.15234375 626.203125 C317.40292943 631.63302006 313.08578439 636.3855463 308.58984375 641.203125 C307.63727606 642.23499004 306.68548616 643.26757351 305.734375 644.30078125 C303.70602297 646.50392843 301.67275072 648.70238781 299.63671875 650.8984375 C297.65060364 653.04480459 295.68246301 655.20538046 293.73046875 657.3828125 C285.6145911 666.41453945 276.82576001 674.26247097 267.375 681.87890625 C264.5125534 684.26762396 261.80562459 686.77459564 259.08984375 689.328125 C254.83292026 693.24233007 250.51040091 696.33033098 245.5703125 699.3125 C242.76305132 701.09325284 240.1405793 702.9938879 237.49316406 704.99804688 C221.0784714 717.4157401 202.93245404 726.97411795 184.58984375 736.203125 C183.38642334 736.81583252 183.38642334 736.81583252 182.15869141 737.44091797 C164.27754362 746.49730732 145.25252502 754.01565067 125.73535156 758.66210938 C123.10544036 759.32527315 120.50253682 760.0678402 117.89453125 760.8125 C101.94255535 765.3353529 85.99657409 768.79236785 69.58984375 771.203125 C68.47351563 771.36828613 67.3571875 771.53344727 66.20703125 771.70361328 C12.11318633 779.28898858 -43.28125289 773.91579352 -95.35717773 758.0871582 C-98.37605738 757.21299881 -101.40350641 756.46087119 -104.4609375 755.734375 C-110.60730804 754.22615873 -116.4502234 752.17492015 -122.34765625 749.890625 C-124.00788818 749.24855103 -124.00788818 749.24855103 -125.70166016 748.59350586 C-151.53626232 738.36979153 -176.98717477 725.69092467 -199.59033203 709.50097656 C-201.92179127 707.83824014 -204.27737743 706.21215671 -206.63623047 704.58862305 C-208.2321377 703.48963511 -209.82318934 702.38360636 -211.4140625 701.27734375 C-213.41366051 699.89300667 -215.42156244 698.52058895 -217.4375 697.16015625 C-218.35660156 696.53496094 -219.27570313 695.90976562 -220.22265625 695.265625 C-221.03347656 694.72035156 -221.84429687 694.17507813 -222.6796875 693.61328125 C-223.53626953 692.91525391 -223.53626953 692.91525391 -224.41015625 692.203125 C-224.41015625 691.543125 -224.41015625 690.883125 -224.41015625 690.203125 C-224.93996094 689.98140625 -225.46976563 689.7596875 -226.015625 689.53125 C-229.25886665 687.7323884 -231.93872805 685.37655572 -234.72265625 682.953125 C-235.33294678 682.42517334 -235.9432373 681.89722168 -236.57202148 681.35327148 C-246.19870391 672.96533913 -255.48013312 664.20338773 -264.53515625 655.203125 C-265.05537354 654.68758057 -265.57559082 654.17203613 -266.11157227 653.64086914 C-268.57796082 651.16400075 -270.91009303 648.64688226 -273.125 645.94140625 C-275.2575242 643.1691299 -275.2575242 643.1691299 -277.84765625 641.390625 C-280.25349514 639.33686009 -281.47301814 637.73816501 -283.1484375 635.109375 C-286.24838032 630.37244234 -289.64287672 625.9471521 -293.16015625 621.515625 C-309.51666401 600.65138414 -309.51666401 600.65138414 -314.10546875 590.76171875 C-315.63779323 587.75671116 -317.46042619 585.06190544 -319.34765625 582.265625 C-330.55631757 565.28808445 -339.17460948 546.84865084 -345.59716797 527.58837891 C-346.57021087 524.7335353 -347.64004504 521.92473207 -348.73217773 519.11376953 C-378.64091164 441.9407555 -379.113866 352.59495056 -342.32714844 238.43701172 C-341.17550004 235.63147849 -340.1305789 232.79051339 -339.0703125 229.94921875 C-336.62067437 223.5518433 -333.7286327 217.50860939 -330.53515625 211.453125 C-329.69803101 209.85791016 -329.69803101 209.85791016 -328.84399414 208.23046875 C-317.52741265 186.92719575 -305.15255843 165.99041663 -289.27905273 147.74023438 C-286.40245816 144.42757005 -283.7633403 141.02890255 -281.22265625 137.453125 C-275.97768956 130.1037623 -270.22565959 123.72252237 -263.34765625 117.87890625 C-258.87928465 114.01412517 -254.88295891 109.79383753 -251.09765625 105.265625 C-247.04667617 100.57406678 -242.29821074 96.97961025 -237.41015625 93.203125 C-232.38283244 89.15605931 -227.37575225 85.10564396 -222.59765625 80.765625 C-214.79405148 73.87537849 -206.01081996 67.96944137 -197.01953125 62.75390625 C-193.84209538 60.86551996 -190.75533506 58.84690428 -187.66015625 56.828125 C-178.12266303 50.65422047 -168.30138944 45.0741716 -158.16015625 39.953125 C-157.53512207 39.63593506 -156.91008789 39.31874512 -156.26611328 38.99194336 C-151.90704644 36.82719415 -147.46161708 34.99537108 -142.93261719 33.21679688 C-140.55839743 32.26269695 -138.22617758 31.24857694 -135.89453125 30.1953125 C-120.77914427 23.39923462 -105.23416625 18.06954553 -89.41015625 13.203125 C-87.92153076 12.74462158 -87.92153076 12.74462158 -86.40283203 12.27685547 C-68.9325378 7.0570161 -50.85014994 4.83975706 -32.828125 2.40234375 C-32.04239609 2.29534653 -31.25666718 2.1883493 -30.4471283 2.07810974 C-20.28595774 0.73463951 -10.25132363 0.04009489 0 0 Z M-57.41015625 73.203125 C-60.20946183 75.47296993 -63.12628089 77.58756258 -66.03320312 79.71679688 C-67.52642128 80.83457733 -68.97293374 82.0142074 -70.41015625 83.203125 C-70.41015625 83.863125 -70.41015625 84.523125 -70.41015625 85.203125 C-71.00054687 85.47898438 -71.5909375 85.75484375 -72.19921875 86.0390625 C-77.94565409 89.06457086 -81.95660373 93.65928685 -85.68359375 98.87109375 C-87.79465115 101.72245408 -90.0621801 104.42933933 -92.34765625 107.140625 C-99.35376238 115.50027228 -105.73872873 123.87271198 -111.41015625 133.203125 C-111.78011719 133.8115625 -112.15007812 134.42 -112.53125 135.046875 C-118.83116719 145.45722997 -124.66276846 156.07683173 -130.22412109 166.8984375 C-131.37769625 169.14004917 -132.54389134 171.3747554 -133.7109375 173.609375 C-134.4241445 174.99429389 -135.13643152 176.37968707 -135.84765625 177.765625 C-136.16557129 178.37156494 -136.48348633 178.97750488 -136.81103516 179.60180664 C-138.93290765 183.79247627 -140.28754203 187.98982516 -141.5769043 192.50024414 C-143.11571121 197.49178568 -145.15914843 202.29379788 -147.09765625 207.140625 C-150.79434221 216.57178226 -154.08232867 226.05640177 -156.97265625 235.765625 C-157.47381958 237.43129517 -157.47381958 237.43129517 -157.98510742 239.13061523 C-161.35316486 249.33817351 -161.35316486 249.33817351 -160.484375 259.65625 C-160.02675781 260.24921875 -159.56914062 260.8421875 -159.09765625 261.453125 C-158.63230469 262.10539063 -158.16695312 262.75765625 -157.6875 263.4296875 C-157.26597656 264.01492188 -156.84445313 264.60015625 -156.41015625 265.203125 C-152.1141943 274.2246451 -152.13615966 285.27114934 -155.296875 294.6484375 C-158.43205121 301.84284186 -162.28865538 307.34378925 -168.41015625 312.203125 C-168.41015625 312.863125 -168.41015625 313.523125 -168.41015625 314.203125 C-169.36535156 314.54150391 -169.36535156 314.54150391 -170.33984375 314.88671875 C-172.5967605 316.02200127 -172.5967605 316.02200127 -173.16796875 318.36328125 C-173.62478704 321.97408961 -174.06093664 325.58045122 -174.41015625 329.203125 C-174.53753174 330.49476563 -174.53753174 330.49476563 -174.66748047 331.8125 C-175.6170765 341.75835932 -176.46218281 351.66273699 -176.44140625 361.66015625 C-176.46072438 382.75555616 -176.46072438 382.75555616 -181.34765625 388.765625 C-182.99354644 390.29095636 -184.68287206 391.77061685 -186.41015625 393.203125 C-188.16320715 395.07689498 -189.89227723 396.97336555 -191.59765625 398.890625 C-192.42394531 399.7878125 -193.25023437 400.685 -194.1015625 401.609375 C-197.10279384 404.98131681 -199.81087631 408.51552866 -202.41015625 412.203125 C-205.72651775 410.70123255 -208.38571936 408.78964213 -211.22265625 406.515625 C-212.03347656 405.87238281 -212.84429687 405.22914063 -213.6796875 404.56640625 C-214.58074219 403.78652344 -215.48179687 403.00664062 -216.41015625 402.203125 C-217.33308472 401.55802979 -217.33308472 401.55802979 -218.2746582 400.89990234 C-221.61546257 398.2460755 -223.2032771 396.31016405 -223.99975586 392.0480957 C-224.17779844 388.08486258 -224.12139836 384.16393427 -223.97265625 380.203125 C-223.94225476 378.73474526 -223.91413377 377.26631671 -223.88818359 375.79785156 C-223.79139486 371.26318835 -223.61492494 366.73408181 -223.41015625 362.203125 C-223.37819153 361.49567139 -223.34622681 360.78821777 -223.31329346 360.05932617 C-222.76166365 348.27610105 -222.08873361 336.48577478 -220.65625 324.7734375 C-220.54200684 323.80180664 -220.42776367 322.83017578 -220.31005859 321.82910156 C-220.09301111 320.05942639 -219.85175072 318.29246494 -219.58056641 316.53027344 C-219.19470779 313.92677037 -219.19470779 313.92677037 -219.41015625 310.203125 C-221.63254043 307.5066448 -221.63254043 307.5066448 -224.41015625 305.203125 C-226.17578125 301.828125 -226.17578125 301.828125 -227.66015625 298.203125 C-228.1603125 297.006875 -228.66046875 295.810625 -229.17578125 294.578125 C-233.24614018 283.44904236 -231.79704984 273.05159957 -227.19140625 262.37890625 C-223.32856813 254.51373863 -218.25719234 248.98289607 -209.91015625 245.91796875 C-205.54826661 243.435931 -204.73498389 239.44526587 -203.42904663 234.82493591 C-202.88487142 232.78841187 -202.36645452 230.74624529 -201.84765625 228.703125 C-201.46672861 227.29086961 -201.08283697 225.8794105 -200.69604492 224.46875 C-199.93135923 221.66975511 -199.17905088 218.86796928 -198.43847656 216.0625 C-194.89714911 202.77159202 -190.83866163 189.85444762 -185.41015625 177.203125 C-185.04374023 176.3378418 -184.67732422 175.47255859 -184.29980469 174.58105469 C-179.32604868 162.84716542 -174.14750942 151.28471952 -168.29980469 139.96044922 C-167.46347356 138.30844278 -166.6733931 136.63325274 -165.88671875 134.95703125 C-162.08773591 126.92517159 -157.60049374 119.43085295 -152.91015625 111.890625 C-151.96644165 110.36888672 -151.96644165 110.36888672 -151.00366211 108.81640625 C-147.56464861 103.35626137 -143.94702547 98.19168885 -139.92333984 93.14819336 C-138.06284219 90.75668242 -136.48704186 88.26309765 -134.97265625 85.640625 C-134.23208984 84.37025391 -134.23208984 84.37025391 -133.4765625 83.07421875 C-133.12464844 82.45675781 -132.77273438 81.83929688 -132.41015625 81.203125 C-137.45909308 82.66919827 -141.65532486 84.88713369 -146.16015625 87.515625 C-150.53774207 90.037695 -154.87087275 92.48218663 -159.47265625 94.578125 C-166.03183526 97.77531276 -171.67669877 102.39171587 -177.47998047 106.765625 C-180.52105415 109.03046713 -183.62392081 111.20578273 -186.72265625 113.390625 C-195.88555069 119.90837721 -204.35017302 126.94214984 -212.57421875 134.58984375 C-214.98002339 136.8067629 -217.42188806 138.95523448 -219.91015625 141.078125 C-222.78373158 143.56658198 -225.09827871 146.17376822 -227.41015625 149.203125 C-229.07682292 150.86979167 -230.74348958 152.53645833 -232.41015625 154.203125 C-233.76570918 155.85177045 -235.10647278 157.51316495 -236.41015625 159.203125 C-230.92027159 158.60199796 -225.70735063 157.63140164 -220.34765625 156.328125 C-209.48889189 153.78547126 -198.47655033 152.4876436 -187.41015625 151.203125 C-187.64089844 151.71359375 -187.87164062 152.2240625 -188.109375 152.75 C-195.04200353 168.2045553 -202.31578497 184.46063303 -205.41015625 201.203125 C-206.24933594 201.35007813 -207.08851563 201.49703125 -207.953125 201.6484375 C-235.33236162 206.75453307 -259.01881656 215.55060197 -279.41015625 235.203125 C-280.41755859 236.14671875 -280.41755859 236.14671875 -281.4453125 237.109375 C-292.69546874 249.09761306 -297.15298128 264.76071939 -296.86376953 280.84545898 C-295.52018063 314.30339406 -277.85505547 346.37922092 -257.23828125 371.890625 C-255.41015625 374.203125 -255.41015625 374.203125 -254.13671875 376.50390625 C-251.52066541 380.5937091 -248.14402953 383.90226785 -244.78515625 387.390625 C-243.33907885 388.90942834 -241.89376196 390.42895615 -240.44921875 391.94921875 C-239.75344727 392.67995605 -239.05767578 393.41069336 -238.34082031 394.16357422 C-229.35136451 403.66002259 -229.35136451 403.66002259 -225.5078125 408.6953125 C-223.24889166 411.39592178 -220.86650073 413.40847883 -218.09765625 415.578125 C-214.183169 418.7138681 -210.5697371 421.91932784 -207.0859375 425.51953125 C-204.62454305 427.99240074 -202.00069481 430.25816601 -199.35546875 432.53125 C-198.17160134 433.54871034 -196.99698292 434.57724215 -195.83984375 435.625 C-191.35340375 439.63799659 -186.49015091 443.07291738 -181.56005859 446.51293945 C-178.62568932 448.57044146 -175.81778971 450.67116628 -173.1015625 453.01171875 C-170.73012385 455.41359078 -170.73012385 455.41359078 -168.41015625 455.203125 C-168.41015625 455.863125 -168.41015625 456.523125 -168.41015625 457.203125 C-166.63526138 458.61331544 -164.78506416 459.92891574 -162.91015625 461.203125 C-162.32991699 461.59830322 -161.74967773 461.99348145 -161.15185547 462.40063477 C-156.0154973 465.86682614 -150.76638852 469.14646659 -145.49389648 472.40039062 C-140.91417017 475.2341338 -136.42978927 478.18104927 -131.97265625 481.203125 C-118.04167248 490.58390715 -103.34762536 498.55568177 -88.41015625 506.203125 C-87.37592529 506.73268799 -87.37592529 506.73268799 -86.32080078 507.27294922 C-78.49183008 511.26482615 -70.59162276 515.10694349 -62.66015625 518.890625 C-61.91636719 519.24713135 -61.17257812 519.6036377 -60.40625 519.97094727 C-55.1889663 522.44196156 -49.89802736 524.68798618 -44.56152344 526.88842773 C-41.39013253 528.21147856 -38.24259854 529.58019153 -35.09765625 530.96484375 C-12.75685426 540.76715165 9.89430821 549.32206012 33.48974609 555.62890625 C35.36206213 556.14084386 37.22130593 556.70005413 39.078125 557.265625 C44.81978179 559.00599188 49.80981472 560.1968112 55.44140625 557.2265625 C65.77786803 552.30264798 79.66380935 553.58948584 90.2421875 557.1328125 C94.8766713 559.24570528 100.0107359 562.36332023 102.54272461 566.91674805 C104.32214444 570.05822321 105.6028979 571.8425569 109.0690918 573.10888672 C112.21739981 573.73628695 115.33718938 574.15825287 118.52734375 574.515625 C120.07711914 574.72928711 120.07711914 574.72928711 121.65820312 574.94726562 C125.29647495 575.4273003 128.94024584 575.82242361 132.58984375 576.203125 C133.37856873 576.28926056 134.1672937 576.37539612 134.97991943 576.46414185 C149.45224686 578.02597205 163.78837717 578.56857741 178.33984375 578.515625 C179.91075272 578.51289078 179.91075272 578.51289078 181.51339722 578.51010132 C197.37585518 578.46373355 212.94024708 578.03654874 228.58984375 575.203125 C229.57581543 575.02620117 230.56178711 574.84927734 231.57763672 574.66699219 C244.59502794 572.24544375 257.23092795 568.96344873 269.58984375 564.203125 C270.9675293 563.67525391 270.9675293 563.67525391 272.37304688 563.13671875 C292.97271819 555.09316741 313.00583311 543.32400111 322.58984375 522.203125 C328.60032002 504.75148489 328.43323716 489.00652627 324.58984375 471.203125 C324.18958984 469.31400391 324.18958984 469.31400391 323.78125 467.38671875 C321.55460417 458.05459867 317.98215998 449.63075516 313.57958984 441.12670898 C312.91494993 439.83497296 312.28256552 438.52617073 311.68212891 437.20336914 C310.02465607 433.80602936 309.09467741 432.38687428 305.48828125 431.07421875 C304.32554687 430.93113281 303.1628125 430.78804688 301.96484375 430.640625 C290.72953546 428.69425935 283.23952356 423.4387914 276.58984375 414.203125 C273.08467167 408.26525887 270.34406267 402.82341491 270.6328125 395.83203125 C270.6647168 394.59936523 270.6647168 394.59936523 270.69726562 393.34179688 C270.75054232 391.6278467 270.8156018 389.91422127 270.89257812 388.20117188 C270.90998047 387.37810547 270.92738281 386.55503906 270.9453125 385.70703125 C270.98628052 384.59050171 270.98628052 384.59050171 271.02807617 383.45141602 C270.75893121 381.00977702 270.75893121 381.00977702 268.6171875 379.09838867 C265.56442341 374.73871509 265.89940299 370.58502535 265.796875 365.375 C265.74233406 363.78138641 265.74233406 363.78138641 265.68669128 362.15557861 C265.57400916 358.75504601 265.48744917 355.35444889 265.40234375 351.953125 C265.33448044 349.71088236 265.26483668 347.46869285 265.19335938 345.2265625 C265.08885723 341.94510478 264.98550449 338.66368149 264.88967896 335.38195801 C264.62972165 326.64288174 264.17947253 317.92569507 263.58984375 309.203125 C264.45424072 310.01112549 265.3186377 310.81912598 266.20922852 311.65161133 C271.7983402 316.87103416 277.43937967 321.9621066 283.33984375 326.828125 C288.97663881 331.50909014 293.84762606 336.60879007 298.58984375 342.203125 C299.87941593 343.68411805 301.17093832 345.1634163 302.46484375 346.640625 C302.99851562 347.25808594 303.5321875 347.87554687 304.08203125 348.51171875 C304.57960938 349.06988281 305.0771875 349.62804687 305.58984375 350.203125 C306.03457031 350.76257813 306.47929688 351.32203125 306.9375 351.8984375 C309.30592288 353.76853973 311.16643766 353.57444455 314.15234375 353.640625 C325.5743422 354.39659361 332.82533085 358.87216187 340.58984375 367.203125 C348.52544401 376.98024016 349.27599004 387.99763816 348.58984375 400.203125 C348.24373047 401.96269531 348.24373047 401.96269531 347.890625 403.7578125 C347.52144844 407.98656218 348.49847641 409.95553942 350.52734375 413.640625 C351.37619141 415.21650391 351.37619141 415.21650391 352.2421875 416.82421875 C352.68691406 417.60925781 353.13164063 418.39429688 353.58984375 419.203125 C353.91984375 419.203125 354.24984375 419.203125 354.58984375 419.203125 C355.55470416 414.15990504 355.90148611 409.19397584 356.15234375 404.078125 C356.19552734 403.29953125 356.23871094 402.5209375 356.28320312 401.71875 C356.87754352 390.13382929 356.520684 378.64909563 355.77734375 367.078125 C355.73283081 366.38403534 355.68831787 365.68994568 355.64245605 364.974823 C354.17776788 342.51915418 351.53903345 320.96127588 345.58984375 299.203125 C345.33750977 298.25937012 345.08517578 297.31561523 344.82519531 296.34326172 C338.34563248 272.43058937 328.52625453 248.81268909 316.77734375 227.015625 C316.37064453 226.25443359 315.96394531 225.49324219 315.54492188 224.70898438 C314.56292615 222.87207472 313.57684245 221.03735134 312.58984375 219.203125 C311.92984375 219.203125 311.26984375 219.203125 310.58984375 219.203125 C310.00589844 220.71326172 310.00589844 220.71326172 309.41015625 222.25390625 C305.23778518 232.8202675 300.29208244 242.77447291 294.87988281 252.75415039 C293.44631233 255.47560109 292.10432663 258.2344984 290.7578125 261 C287.54333766 267.4654136 283.82603482 273.54501957 279.96484375 279.640625 C279.31 280.68927734 278.65515625 281.73792969 277.98046875 282.81835938 C275.04461314 287.48660751 272.09815432 291.93946643 268.58984375 296.203125 C265.17995227 295.59421581 263.08015146 294.6333399 260.58984375 292.203125 C259.78686047 289.64112808 259.22859939 287.33448328 258.7734375 284.7109375 C258.63084 283.96915253 258.48824249 283.22736755 258.34132385 282.46310425 C257.88781503 280.08739814 257.45691686 277.70826394 257.02734375 275.328125 C256.5908349 272.99233053 256.14967033 270.65745415 255.70767212 268.32269287 C255.41886077 266.79344804 255.13269423 265.26370127 254.84921265 263.73345947 C253.79752118 258.10431585 252.5362482 252.54681063 251.12524414 246.99560547 C250.18641557 242.0989702 250.07216382 238.37141358 252.56640625 233.98828125 C252.98696289 233.22773438 253.40751953 232.4671875 253.84082031 231.68359375 C254.29424805 230.88566406 254.74767578 230.08773437 255.21484375 229.265625 C264.11536125 212.95322188 278.46112628 185.51791094 274.58984375 166.203125 C265.37073962 160.05705558 249.93208752 163.59801325 239.65039062 165.54882812 C229.12813966 167.79832019 218.85285 171.00004973 208.58984375 174.203125 C207.61853516 174.49783691 206.64722656 174.79254883 205.64648438 175.09619141 C182.13510374 182.29686371 159.59537244 193.54492859 138.05859375 205.328125 C134.52299709 207.23925833 130.9530062 209.00617198 127.33984375 210.765625 C121.18980165 213.8232337 115.38938213 217.2669424 109.59082031 220.94140625 C105.37835821 223.5975805 101.13707558 226.20766863 96.90234375 228.828125 C96.03536865 229.36646973 95.16839355 229.90481445 94.27514648 230.45947266 C90.00526876 233.10772904 85.72247431 235.72865555 81.40625 238.30078125 C77.27259852 240.77392683 73.21729801 243.33593642 69.21484375 246.015625 C68.57474365 246.44230469 67.93464355 246.86898437 67.27514648 247.30859375 C63.29861852 249.98368558 59.45340785 252.78121858 55.65234375 255.703125 C50.36162013 259.75742952 44.8343579 263.26897619 39.10766602 266.66601562 C35.02987061 269.12707968 31.93482729 271.77209687 28.58984375 275.203125 C26.46335356 276.79459786 24.33922368 278.32668965 22.15234375 279.828125 C15.77356591 284.28985381 9.64053112 289.00912873 3.55078125 293.85546875 C0.58984375 296.203125 0.58984375 296.203125 -1.75 297.64453125 C-4.19042717 299.9356617 -4.05960961 301.92018246 -4.34765625 305.203125 C-5.48496219 314.14195061 -8.19539376 322.39994647 -15.41015625 328.203125 C-16.20550781 328.85152344 -17.00085938 329.49992187 -17.8203125 330.16796875 C-27.81172726 337.93906912 -35.5462109 339.67153992 -47.9921875 338.8203125 C-52.42226632 339.31648133 -53.6049712 340.83981489 -56.41015625 344.203125 C-57.5128269 345.35039806 -58.61683513 346.49638826 -59.72265625 347.640625 C-60.23441406 348.17558594 -60.74617187 348.71054687 -61.2734375 349.26171875 C-63.1044097 350.92532604 -64.91111546 352.28348913 -66.921875 353.7109375 C-72.81682789 358.07286287 -77.79668038 363.41382881 -82.91015625 368.640625 C-84.89622777 370.66364221 -86.88560313 372.68332634 -88.87890625 374.69921875 C-89.59535561 375.42384811 -89.59535561 375.42384811 -90.32627869 376.16311646 C-94.19290472 380.04533086 -98.24500281 383.6490195 -102.41015625 387.203125 C-106.9383938 391.38795124 -110.95200863 395.8104548 -114.78515625 400.640625 C-118.52031234 405.30313019 -122.56441241 409.1757428 -127.0625 413.08984375 C-132.6743923 418.14148058 -137.19368358 424.13674755 -141.78515625 430.1015625 C-145.39417261 434.76899232 -149.23528435 439.0282531 -153.41015625 443.203125 C-154.76570918 444.85177045 -156.10647278 446.51316495 -157.41015625 448.203125 C-161.63255566 447.67346006 -163.82106168 446.38711719 -167.03515625 443.640625 C-170.55754377 440.70791124 -174.11444485 437.92533784 -177.84765625 435.265625 C-183.57548539 431.14977064 -188.9983077 426.72521121 -194.41015625 422.203125 C-193.83888916 418.34487499 -192.10361237 416.44728645 -189.47265625 413.640625 C-188.25255859 412.32191406 -188.25255859 412.32191406 -187.0078125 410.9765625 C-186.15058594 410.06132812 -185.29335937 409.14609375 -184.41015625 408.203125 C-179.43784633 402.81968805 -174.54510112 397.43294451 -169.97265625 391.703125 C-165.947298 386.70883096 -161.5432354 382.2371283 -156.96875 377.7578125 C-154.82306371 375.61540207 -152.81428604 373.44505238 -150.84765625 371.140625 C-146.64674259 366.22100082 -142.01461489 361.74095964 -137.41015625 357.203125 C-135.74201661 355.53793261 -134.07565619 353.87095758 -132.41015625 352.203125 C-130.92065974 350.71345485 -129.43106616 349.22388175 -127.94140625 347.734375 C-126.71357422 346.50654297 -126.71357422 346.50654297 -125.4609375 345.25390625 C-117.87890625 337.671875 -117.87890625 337.671875 -115.50268555 335.29736328 C-113.88041611 333.67376893 -112.26335519 332.04496948 -110.6484375 330.4140625 C-94.91559103 314.87341486 -94.91559103 314.87341486 -86.41015625 309.203125 C-86.41015625 308.543125 -86.41015625 307.883125 -86.41015625 307.203125 C-85.76361084 306.955625 -85.11706543 306.708125 -84.45092773 306.453125 C-82.25803468 305.41920792 -82.25803468 305.41920792 -81.85180664 303.390625 C-81.82078857 302.66875 -81.78977051 301.946875 -81.7578125 301.203125 C-81.70665283 300.40293945 -81.65549316 299.60275391 -81.6027832 298.77832031 C-81.55984131 297.92850586 -81.51689941 297.07869141 -81.47265625 296.203125 C-80.66487977 285.96682844 -78.3741565 278.00899279 -70.640625 270.8046875 C-63.90087575 265.96528786 -55.39437357 261.79881422 -46.9609375 262.3515625 C-36.08443393 263.31787995 -36.08443393 263.31787995 -26.41015625 259.328125 C-25.0503794 257.97927005 -23.71895462 256.60149892 -22.41015625 255.203125 C-20.47186381 253.51319315 -18.51190867 251.84790373 -16.53515625 250.203125 C-16.02678223 249.77354492 -15.5184082 249.34396484 -14.99462891 248.90136719 C-10.95438376 245.52701192 -6.70548649 242.74510193 -2.21557617 240.01660156 C0.43156864 238.30543703 2.81367644 236.48191425 5.2421875 234.4765625 C10.50643928 230.21767729 15.95906936 226.30260741 21.52734375 222.453125 C23.01971558 221.41768555 23.01971558 221.41768555 24.54223633 220.36132812 C32.37680008 214.96136739 40.35486605 209.82926204 48.43359375 204.8046875 C51.92869903 202.62970998 55.36455922 200.38083714 58.77734375 198.078125 C68.50074414 191.54138524 78.38542471 185.23750957 88.734375 179.734375 C92.11255859 177.92281827 95.44354954 176.03200875 98.77734375 174.140625 C105.84072784 170.14873221 112.95781548 166.25835582 120.08984375 162.390625 C121.10457764 161.83947021 122.11931152 161.28831543 123.16479492 160.72045898 C131.02333303 156.46896975 138.75683865 152.47004922 147.08105469 149.21240234 C150.22509372 147.94756609 153.28722187 146.53690108 156.35961914 145.10864258 C177.12898901 135.46994983 200.2375497 125.08413481 223.21875 122.625 C225.77013458 122.40437229 225.77013458 122.40437229 227.58984375 120.203125 C224.65278932 118.03585385 221.71511357 115.8694263 218.77734375 113.703125 C217.96330078 113.10242188 217.14925781 112.50171875 216.31054688 111.8828125 C214.61794157 110.63493094 212.92328318 109.38983036 211.22680664 108.1472168 C209.46333577 106.84710398 207.70987807 105.53330282 205.96655273 104.20629883 C199.08109644 99.03233263 191.89932327 94.88350789 184.27734375 90.890625 C183.13716797 90.28412109 181.99699219 89.67761719 180.82226562 89.05273438 C177.7512673 87.4231153 174.67683386 85.80223328 171.58984375 84.203125 C170.51968018 83.62409424 169.4495166 83.04506348 168.34692383 82.44848633 C166.98216919 81.83203247 166.98216919 81.83203247 165.58984375 81.203125 C164.92984375 81.533125 164.26984375 81.863125 163.58984375 82.203125 C164.09773438 82.82058594 164.605625 83.43804687 165.12890625 84.07421875 C169.62361257 89.60422259 173.77017198 95.19083982 177.58984375 101.203125 C177.99058105 101.82622559 178.39131836 102.44932617 178.80419922 103.09130859 C180.17721385 105.22838367 181.5409182 107.37115102 182.90234375 109.515625 C183.34755371 110.20994629 183.79276367 110.90426758 184.25146484 111.61962891 C184.6686377 112.28269043 185.08581055 112.94575195 185.515625 113.62890625 C185.89114502 114.22098877 186.26666504 114.81307129 186.65356445 115.4230957 C187.656077 117.32904589 188.15168267 119.10128044 188.58984375 121.203125 C187.33816406 121.27015625 186.08648438 121.3371875 184.796875 121.40625 C178.77785557 122.07934465 173.73403338 124.43910013 168.27734375 126.953125 C166.2489678 127.86258132 164.22032433 128.77144127 162.19140625 129.6796875 C161.22750977 130.11571289 160.26361328 130.55173828 159.27050781 131.00097656 C154.42146938 133.17553624 149.50907113 135.19311811 144.58984375 137.203125 C144.32816406 136.47609375 144.06648438 135.7490625 143.796875 135 C142.55896666 132.1315781 141.13922049 129.95689072 139.27734375 127.453125 C138.21580078 126.02419922 138.21580078 126.02419922 137.1328125 124.56640625 C136.28630223 123.44444694 135.43854132 122.32343065 134.58984375 121.203125 C134.0892041 120.54103027 133.58856445 119.87893555 133.07275391 119.19677734 C129.76048066 114.82401745 126.42494437 110.46988686 123.07177734 106.12841797 C121.81457281 104.49508766 120.56995526 102.85208101 119.328125 101.20703125 C115.39624908 96.09479501 111.16648984 91.78181371 106.29296875 87.55859375 C104.36788639 85.88110147 102.4927198 84.19154022 100.63671875 82.44140625 C100.12979492 81.96566162 99.62287109 81.48991699 99.10058594 80.99975586 C97.67804542 79.66112409 96.25883278 78.31895837 94.83984375 76.9765625 C54.80002737 41.4340662 -17.05058642 32.17089568 -57.41015625 73.203125 Z M-323.41015625 355.203125 C-324.17353429 361.84260932 -324.57852338 368.39260462 -324.61328125 375.07421875 C-324.6203862 375.9855658 -324.62749115 376.89691284 -324.6348114 377.83587646 C-324.82062579 408.72403273 -321.85219139 437.47506818 -315.19433594 467.61474609 C-314.57054757 470.46917989 -313.97842895 473.32415125 -313.41796875 476.19140625 C-308.65445466 499.76476591 -298.16616018 523.41843431 -286.16015625 544.1640625 C-284.83225556 546.47010432 -283.73028227 548.60713286 -282.78515625 551.078125 C-281.76901215 554.28976891 -281.76901215 554.28976891 -279.41015625 555.203125 C-278.98347656 554.0378125 -278.55679688 552.8725 -278.1171875 551.671875 C-273.12878104 538.44787894 -266.85541743 526.22159718 -259.93066406 513.91503906 C-258.59878847 511.53956152 -257.29077183 509.1536856 -255.99609375 506.7578125 C-250.41154507 496.49579934 -244.01352906 486.83493541 -237.41015625 477.203125 C-234.1994755 477.92112359 -232.43796429 478.7440268 -229.97265625 480.953125 C-229.41707031 481.44296875 -228.86148438 481.9328125 -228.2890625 482.4375 C-226.87200584 483.76912081 -225.50179389 485.15084448 -224.15625 486.5546875 C-220.94425165 489.65246116 -217.5239697 492.22331689 -213.91015625 494.828125 C-213.25917969 495.30507813 -212.60820312 495.78203125 -211.9375 496.2734375 C-208.51771517 498.76055374 -205.08384228 501.09782032 -201.41015625 503.203125 C-201.86130685 508.4960883 -203.89768646 511.91947581 -206.91015625 516.140625 C-207.83172054 517.48541036 -208.75093944 518.83180559 -209.66796875 520.1796875 C-210.13106445 520.85676758 -210.59416016 521.53384766 -211.07128906 522.23144531 C-222.57534675 539.17286943 -230.99039574 558.02194489 -238.03515625 577.203125 C-238.35363525 578.06752197 -238.67211426 578.93191895 -239.00024414 579.82250977 C-241.77843208 587.67504154 -243.73003643 595.44827706 -243.53515625 603.828125 C-243.51710938 604.85164062 -243.4990625 605.87515625 -243.48046875 606.9296875 C-243.45726562 607.67992187 -243.4340625 608.43015625 -243.41015625 609.203125 C-229.05190849 612.88394699 -215.43283756 610.28840965 -201.296875 607.04296875 C-197.41015625 606.203125 -197.41015625 606.203125 -194.41015625 606.203125 C-194.05300537 606.9780127 -193.69585449 607.75290039 -193.32788086 608.55126953 C-184.16480963 628.51982462 -184.16480963 628.51982462 -174.41015625 648.203125 C-175.41175781 648.32558594 -176.41335937 648.44804688 -177.4453125 648.57421875 C-181.35553379 649.13282179 -185.05782548 650.14672258 -188.84765625 651.265625 C-190.08386719 651.62785156 -191.32007813 651.99007813 -192.59375 652.36328125 C-193.98787109 652.77900391 -193.98787109 652.77900391 -195.41015625 653.203125 C-191.5760144 657.27321404 -187.48982139 660.50696184 -182.91015625 663.703125 C-182.17531006 664.21794434 -181.44046387 664.73276367 -180.68334961 665.26318359 C-168.27912936 673.85022284 -155.35084414 681.6535045 -142.22265625 689.078125 C-141.46218994 689.51334473 -140.70172363 689.94856445 -139.91821289 690.39697266 C-138.11665489 691.39712141 -136.26706467 692.30992855 -134.41015625 693.203125 C-133.75015625 692.873125 -133.09015625 692.543125 -132.41015625 692.203125 C-133.84599896 690.03534512 -135.28366526 687.86881444 -136.72265625 685.703125 C-137.1727002 685.02459473 -137.62274414 684.34606445 -138.08642578 683.64697266 C-140.38403979 680.19539292 -142.70320295 676.76531739 -145.1015625 673.3828125 C-170.18098809 637.95525828 -187.48129473 597.17180815 -199.72265625 555.703125 C-199.9702066 554.87608063 -200.21775696 554.04903625 -200.47280884 553.19692993 C-201.17304151 550.83886057 -201.85196413 548.47577455 -202.5234375 546.109375 C-202.73105713 545.41277267 -202.93867676 544.71617035 -203.15258789 543.99845886 C-204.72231016 538.29627777 -204.68536281 533.63974016 -201.921875 528.359375 C-201.31988281 527.4828125 -200.71789062 526.60625 -200.09765625 525.703125 C-199.47117187 524.76597656 -198.8446875 523.82882812 -198.19921875 522.86328125 C-197.60882813 521.98542969 -197.0184375 521.10757813 -196.41015625 520.203125 C-193.53361369 515.98940018 -193.53361369 515.98940018 -192.41015625 511.203125 C-184.51638669 515.77222456 -176.89292695 520.73018649 -169.38476562 525.90454102 C-167.37928897 527.2575185 -167.37928897 527.2575185 -165.06054688 528.51538086 C-159.69990895 531.6426011 -157.36463251 534.08063465 -155.68896484 540.08032227 C-155.47320801 540.96647217 -155.25745117 541.85262207 -155.03515625 542.765625 C-154.4861854 544.72630714 -153.92839186 546.68453363 -153.36328125 548.640625 C-153.06228516 549.69121094 -152.76128906 550.74179687 -152.45117188 551.82421875 C-150.52432517 558.07833658 -148.14126721 564.16367582 -145.78515625 570.265625 C-145.32963379 571.45293213 -144.87411133 572.64023926 -144.40478516 573.86352539 C-143.51310589 576.18166508 -142.61740426 578.49826189 -141.7175293 580.81323242 C-140.85494822 583.04982219 -140.00709757 585.29215625 -139.17504883 587.5402832 C-136.37144007 595.06605416 -133.10018512 602.16790666 -129.34765625 609.265625 C-128.78401367 610.3390918 -128.22037109 611.41255859 -127.63964844 612.51855469 C-116.37501007 633.75846746 -103.70919495 656.86302772 -86.05078125 673.53125 C-84.15481084 675.46333414 -82.58941771 677.53287764 -80.97265625 679.703125 C-77.55769832 684.18573053 -73.76618201 687.65519589 -69.41015625 691.203125 C-68.59804688 691.89019531 -67.7859375 692.57726562 -66.94921875 693.28515625 C-64.13809135 695.63875412 -61.28720459 697.93059266 -58.41015625 700.203125 C-57.40597656 700.99847656 -56.40179688 701.79382813 -55.3671875 702.61328125 C-40.26842291 714.17320098 -22.98314257 722.23405124 -4.41015625 726.203125 C-3.34796875 726.44546875 -2.28578125 726.6878125 -1.19140625 726.9375 C28.23885293 732.7919064 57.63863081 722.18949956 81.96166992 706.10595703 C89.01918811 701.3130839 95.40205167 696.08459074 101.58984375 690.203125 C103.48449572 688.51429873 105.38036055 686.82683229 107.27734375 685.140625 C111.7461013 681.05828721 115.75817931 676.88044975 119.58984375 672.203125 C120.58983313 671.0038974 121.58983429 669.80467961 122.58984375 668.60546875 C128.60456408 661.34276019 134.32518932 653.9929727 139.58984375 646.16796875 C140.24984375 645.18957031 140.90984375 644.21117187 141.58984375 643.203125 C141.87506393 642.61019653 142.16028412 642.01726807 142.45414734 641.40637207 C143.63746571 639.23427064 144.68755387 637.79999183 146.58984375 636.203125 C150.617245 635.21241039 154.54595879 635.38802291 158.671875 635.51953125 C159.84119064 635.52943588 161.01050629 635.53934052 162.21525574 635.54954529 C165.94556735 635.58869268 169.67292343 635.67652622 173.40234375 635.765625 C175.93290018 635.80073791 178.46350279 635.83267692 180.99414062 635.86132812 C187.19371466 635.93845628 193.39156808 636.0555527 199.58984375 636.203125 C190.24646664 652.36558762 180.9595515 668.39769194 169.95019531 683.50048828 C167.65888562 686.64940247 165.53704991 689.83006142 163.58984375 693.203125 C169.8958833 691.79233987 174.75419024 688.96907773 180.21484375 685.578125 C181.09567627 685.03978027 181.97650879 684.50143555 182.8840332 683.94677734 C184.64608754 682.86850769 186.40598866 681.7867104 188.16357422 680.70117188 C190.26019085 679.40666195 192.36217587 678.1219592 194.46875 676.84375 C197.52217791 674.98357432 200.56060298 673.10237639 203.58984375 671.203125 C204.67458984 670.52830078 204.67458984 670.52830078 205.78125 669.83984375 C217.83595393 662.08548961 229.11691616 652.95978952 239.58984375 643.203125 C240.87686174 642.0728098 242.16842195 640.94764199 243.46484375 639.828125 C252.73978989 631.71254713 261.47311241 623.4870854 269.58984375 614.203125 C266.53740225 612.67690425 264.57402878 613.93247988 261.33984375 614.890625 C213.99449043 628.20577498 161.71692234 626.3074125 113.4140625 619.7890625 C106.73475005 618.56697299 106.73475005 618.56697299 100.60546875 620.55859375 C100.0228125 621.16316406 99.44015625 621.76773437 98.83984375 622.390625 C90.39353023 630.38300996 81.37235901 632.58710536 70.0078125 632.484375 C59.42659102 631.61369163 49.63914728 625.96475894 42.30981445 618.44189453 C40.31288552 615.84262721 39.44066901 613.33291498 38.28125 610.2734375 C35.70030021 605.02680575 33.60609482 603.1719693 28.09375 601.23046875 C25.44833705 600.48615699 22.81805964 599.79677413 20.15234375 599.140625 C18.0010984 598.55253285 15.8552993 597.94679844 13.70918274 597.34028625 C12.2322395 596.92402382 10.75376217 596.51316857 9.27384949 596.10758972 C1.38184736 593.93029455 -6.2849468 591.19302062 -13.97265625 588.390625 C-16.41106291 587.50802137 -18.84985212 586.62647375 -21.2890625 585.74609375 C-22.46001465 585.32215332 -23.6309668 584.89821289 -24.83740234 584.46142578 C-28.51358304 583.16669875 -32.21247909 581.9654148 -35.921875 580.76953125 C-43.39767006 578.29536332 -50.50811985 575.23518052 -57.66015625 571.953125 C-58.92970943 571.37695153 -60.19948821 570.80127493 -61.46948242 570.22607422 C-69.35143619 566.64674569 -77.19405163 562.98527461 -84.99633789 559.23535156 C-89.15745621 557.24126139 -93.34384456 555.35184876 -97.59277344 553.55273438 C-112.92661485 547.05471098 -126.98566996 538.15436173 -141.18359375 529.515625 C-145.18483296 527.0921615 -149.19304727 524.79109642 -153.34765625 522.640625 C-161.35134994 518.32657734 -168.7070969 512.96632913 -176.15527344 507.7734375 C-178.14411845 506.38839515 -180.13826484 505.01174676 -182.13671875 503.640625 C-192.41725934 496.57428684 -202.46130105 489.23813095 -212.3203125 481.59765625 C-214.24013376 480.10985545 -216.16390343 478.62711733 -218.09375 477.15234375 C-218.87878906 476.55035156 -219.66382813 475.94835937 -220.47265625 475.328125 C-221.14425781 474.81507813 -221.81585938 474.30203125 -222.5078125 473.7734375 C-224.41015625 472.203125 -224.41015625 472.203125 -226.38671875 470.21875 C-228.39485324 468.21836893 -230.47111919 466.54691495 -232.72265625 464.828125 C-237.39473717 461.12794799 -241.79701733 457.19498794 -246.16015625 453.140625 C-246.78575439 452.56328613 -247.41135254 451.98594727 -248.0559082 451.39111328 C-251.66183889 448.01166052 -254.93431207 444.49861981 -258.10546875 440.71020508 C-259.61471915 438.96682882 -261.23500489 437.51660211 -263.03515625 436.078125 C-271.03146087 429.25051106 -278.66150066 421.27676086 -284.03125 412.203125 C-285.86058506 409.54981182 -288.12752799 407.47562326 -290.41015625 405.203125 C-300.76118672 392.62316138 -309.13885772 379.17625762 -317.01879883 364.94775391 C-317.82740356 363.49248291 -317.82740356 363.49248291 -318.65234375 362.0078125 C-319.13558105 361.13108887 -319.61881836 360.25436523 -320.11669922 359.35107422 C-321.35784759 357.09478027 -321.35784759 357.09478027 -323.41015625 355.203125 Z " fill="#000000" transform="translate(390.41015625,19.796875)"/>
<path d="M0 0 C1.40625 2.4140625 1.40625 2.4140625 2.5 5.625 C2.90984131 6.79853027 3.31968262 7.97206055 3.74194336 9.18115234 C4.16215749 10.45381729 4.58149275 11.72677273 5 13 C5.4395164 14.29032674 5.88035761 15.58020297 6.32250977 16.86962891 C10.62291377 29.50365517 14.40995761 42.04968187 17.16333008 55.109375 C18.0238019 59.11068197 18.93768549 63.09638335 19.8671875 67.08203125 C26.83670026 97.1547429 31.50910217 127.22362142 34 158 C34.09571289 159.12172607 34.19142578 160.24345215 34.29003906 161.39916992 C35.32875319 175.30546716 35.24582085 189.24969613 35.25 203.1875 C35.25044186 203.86325829 35.25088371 204.53901657 35.25133896 205.23525238 C35.25899677 227.61335879 34.68511603 249.76705802 32 272 C31.91514343 272.71772583 31.83028687 273.43545166 31.74285889 274.17492676 C29.1034532 296.3920184 25.04270935 318.20985288 20 340 C19.84406372 340.6742804 19.68812744 341.34856079 19.52746582 342.04327393 C17.43851851 351.04954754 15.32138031 360.050468 13 369 C12.74798828 369.97727051 12.49597656 370.95454102 12.23632812 371.96142578 C11.98818359 372.86231934 11.74003906 373.76321289 11.484375 374.69140625 C11.27006836 375.47845947 11.05576172 376.2655127 10.83496094 377.07641602 C10 379 10 379 7 381 C3.12775953 381.82359145 -0.81770628 382.1838502 -4.75 382.625 C-6.47259033 382.82283081 -6.47259033 382.82283081 -8.22998047 383.0246582 C-19.4986198 384.22047279 -30.68297608 384.31716293 -42 384 C-40.18987518 377.07638108 -38.14804951 370.2606301 -35.94262695 363.45336914 C-28.2068149 339.38695538 -22.55893661 315.03101841 -18.625 290.0625 C-18.44259262 288.90731369 -18.44259262 288.90731369 -18.25650024 287.72879028 C-15.68159826 271.21943724 -13.79266388 254.71530218 -13.375 238 C-13.356651 237.33556885 -13.338302 236.6711377 -13.31939697 235.98657227 C-12.86092906 219.32515366 -12.82135268 202.66578919 -13 186 C-13.00936584 184.971026 -13.00936584 184.971026 -13.0189209 183.92126465 C-13.50356545 132.1507307 -22.96682983 81.00046953 -39.8984375 32.12109375 C-44 20.25852273 -44 20.25852273 -44 15 C-35.55682142 10.56552096 -27.002762 6.87242545 -18.0625 3.5625 C-16.87076172 3.10423828 -15.67902344 2.64597656 -14.45117188 2.17382812 C-13.30326172 1.74650391 -12.15535156 1.31917969 -10.97265625 0.87890625 C-9.94406494 0.4929126 -8.91547363 0.10691895 -7.85571289 -0.29077148 C-4.67431359 -1.08088561 -3.02687077 -1.28474495 0 0 Z " fill="#000000" transform="translate(611,203)"/>
<path d="M0 0 C2.4375 1.1875 2.4375 1.1875 3.4375 3.1875 C4.41714202 10.14789058 4.70796515 17.23747482 5.17041016 24.24707031 C5.35567808 26.98036491 5.55435497 29.70971514 5.77099609 32.44042969 C6.05841365 36.10926484 6.29181964 39.77861287 6.49389648 43.45309448 C6.58049561 44.88772504 6.68339158 46.3214754 6.8034668 47.75369263 C7.72180215 58.94909795 7.72180215 58.94909795 4.90869141 63.85205078 C2.56356648 66.48943357 0.04511867 68.80920067 -2.5625 71.1875 C-4.19969401 72.90522183 -5.79759007 74.65490908 -7.39579773 76.40892029 C-14.83547888 84.56200358 -22.60841963 92.38857129 -30.42382812 100.17919922 C-32.46082421 102.210762 -34.49231951 104.24771836 -36.5234375 106.28515625 C-37.84603317 107.60709207 -39.16893849 108.92871817 -40.4921875 110.25 C-41.08506561 110.84490234 -41.67794373 111.43980469 -42.28878784 112.05273438 C-46.01177645 115.75530822 -49.86167175 119.26111447 -53.84133911 122.68652344 C-55.84458822 124.4335013 -57.71661401 126.27568951 -59.5625 128.1875 C-63.39824784 132.06759174 -67.42115165 135.63871341 -71.5625 139.1875 C-74.02316156 141.30981152 -76.48063598 143.43579419 -78.9375 145.5625 C-79.59057129 146.12751221 -80.24364258 146.69252441 -80.91650391 147.2746582 C-86.83604372 152.40527109 -92.65540598 157.64291986 -98.45703125 162.90625 C-103.21160597 167.15033354 -108.18879734 171.07657562 -113.21118164 174.99511719 C-119.66201024 180.03033053 -126.00712841 185.19215082 -132.265625 190.46484375 C-137.75716141 195.05419918 -143.35429176 199.13488852 -149.38671875 202.984375 C-151.78635862 204.64906981 -153.8979806 206.29066305 -156.08203125 208.203125 C-156.68233154 208.71762207 -157.28263184 209.23211914 -157.90112305 209.76220703 C-159.06159384 210.76931234 -160.20155428 211.80073209 -161.31567383 212.85888672 C-163.72969559 214.93114809 -165.45442883 216.16608126 -168.69702148 216.22875977 C-176.5034455 214.89591643 -183.98622688 211.65905501 -191.375 208.875 C-192.66446486 208.39581466 -193.95417759 207.91729576 -195.24414062 207.43945312 C-203.37486342 204.41975748 -211.47367253 201.31752826 -219.5625 198.1875 C-219.00311046 194.87825537 -218.22735971 193.53252903 -215.52734375 191.55859375 C-214.89135254 191.08695801 -214.25536133 190.61532227 -213.60009766 190.12939453 C-212.90706543 189.63294434 -212.2140332 189.13649414 -211.5 188.625 C-210.78118652 188.0976123 -210.06237305 187.57022461 -209.32177734 187.02685547 C-203.87212035 183.0551521 -198.30708643 179.26077927 -192.72216797 175.4831543 C-185.86073003 170.79576171 -179.33946721 165.69002884 -172.81640625 160.546875 C-171.78217529 159.73186523 -171.78217529 159.73186523 -170.72705078 158.90039062 C-169.17926844 157.67557212 -167.63652631 156.44437356 -166.09716797 155.20898438 C-165.29037598 154.56767578 -164.48358398 153.92636719 -163.65234375 153.265625 C-162.91749756 152.6768457 -162.18265137 152.08806641 -161.42553711 151.48144531 C-159.5625 150.1875 -159.5625 150.1875 -157.5625 150.1875 C-157.5625 149.5275 -157.5625 148.8675 -157.5625 148.1875 C-155.88368837 146.81117695 -154.14058258 145.51308818 -152.375 144.25 C-142.70955754 137.20161738 -133.79191225 129.33825349 -124.94921875 121.29296875 C-122.58841764 119.21036352 -120.16492244 117.25426353 -117.6875 115.3125 C-108.97887376 108.43295827 -100.96953289 100.7853311 -93.3046875 92.76953125 C-90.92617822 90.52993776 -88.51776875 88.56548539 -85.94262695 86.56323242 C-80.88170924 82.53086011 -76.28788772 78.18778859 -71.73828125 73.59375 C-70.94777878 72.80278931 -70.15727631 72.01182861 -69.34281921 71.19689941 C-67.68766926 69.53875328 -66.03492474 67.87820277 -64.38452148 66.21533203 C-61.87602846 63.68853596 -59.35957894 61.16988068 -56.84179688 58.65234375 C-55.22348545 57.02911715 -53.6056312 55.4054346 -51.98828125 53.78125 C-51.24645096 53.03830688 -50.50462067 52.29536377 -49.74031067 51.52990723 C-45.15510782 46.90338449 -40.79944104 42.1339662 -36.5625 37.1875 C-32.3471578 32.38142645 -28.08372915 27.70872915 -23.5625 23.1875 C-21.98682781 21.32105539 -20.42979099 19.44280204 -18.89453125 17.54296875 C-18.45496094 17.09566406 -18.01539063 16.64835937 -17.5625 16.1875 C-16.9025 16.1875 -16.2425 16.1875 -15.5625 16.1875 C-15.20671875 15.12789063 -15.20671875 15.12789063 -14.84375 14.046875 C-13.34041846 10.69187901 -11.41236394 8.26038849 -9.0625 5.4375 C-8.2684375 4.47328125 -7.474375 3.5090625 -6.65625 2.515625 C-3.41895141 -1.08405776 -3.41895141 -1.08405776 0 0 Z " fill="#000000" transform="translate(582.5625,344.8125)"/>
<path d="M0 0 C7.16437155 0.0578866 14.12238322 0.67926749 21.21484375 1.65625 C22.48199219 1.82930664 23.74914062 2.00236328 25.0546875 2.18066406 C69.22453697 8.43854631 112.67480769 20.60862575 154.77734375 35.15625 C154.77734375 36.47625 154.77734375 37.79625 154.77734375 39.15625 C152.36091631 40.93900952 150.05638257 42.42276145 147.46484375 43.90625 C145.9837225 44.78970006 144.5045594 45.67644103 143.02734375 46.56640625 C142.29902344 47.00355957 141.57070313 47.44071289 140.8203125 47.89111328 C137.18108007 50.14475841 133.79536304 52.72429501 130.3671875 55.28125 C126.77641574 57.88090376 123.04246441 60.21828614 119.26953125 62.54296875 C117.0755769 63.96319312 115.15213571 65.48361294 113.15234375 67.15625 C108.72347351 69.7807657 105.62468668 69.11272303 100.77734375 68.15625 C96.79468379 67.1092387 92.85652832 65.92507066 88.91064453 64.74810791 C73.39638738 60.17596618 57.70004105 57.06513703 41.77734375 54.28125 C40.19424408 54.0013623 40.19424408 54.0013623 38.5791626 53.71582031 C19.09207047 50.29284717 -0.55154351 47.33321132 -20.33203125 46.3671875 C-23.0414821 46.16947082 -25.57575146 45.75425442 -28.22265625 45.15625 C-25.68633095 36.27911145 -21.46009631 28.31031989 -17.22265625 20.15625 C-16.7834082 19.3091748 -16.34416016 18.46209961 -15.89160156 17.58935547 C-14.52723956 14.96346554 -13.15782268 12.3403077 -11.78515625 9.71875 C-11.12954712 8.46602295 -11.12954712 8.46602295 -10.46069336 7.18798828 C-10.05343018 6.41567871 -9.64616699 5.64336914 -9.2265625 4.84765625 C-8.86377197 4.15873291 -8.50098145 3.46980957 -8.12719727 2.76000977 C-6.12838263 -0.78390747 -3.92023084 0.00649807 0 0 Z " fill="#000000" transform="translate(287.22265625,170.84375)"/>
<path d="M0 0 C2.57193187 1.28648457 5.09589869 2.63972181 7.61669922 4.02368164 C9.48126593 5.02631672 11.34584951 6.02892043 13.21044922 7.03149414 C14.13728516 7.53455078 15.06412109 8.03760742 16.01904297 8.5559082 C18.55042609 9.92056704 21.09402995 11.25647557 23.64794922 12.57836914 C24.40479004 12.9715332 25.16163086 13.36469727 25.94140625 13.76977539 C27.34193777 14.49660566 28.74385324 15.22077854 30.14746094 15.94165039 C32.03563994 16.93135616 33.88585216 17.97494122 35.74169922 19.02368164 C36.36898926 19.32290527 36.9962793 19.62212891 37.64257812 19.93041992 C42.09998514 22.41512713 43.38770902 25.03341005 44.78076172 29.90649414 C45.33954039 32.31376034 45.86645023 34.72857521 46.36669922 37.14868164 C46.65101807 38.42445068 46.93533691 39.70021973 47.22827148 41.01464844 C48.11150244 45.00869871 48.93180652 49.01421587 49.74169922 53.02368164 C50.13349365 54.94059814 50.13349365 54.94059814 50.53320312 56.89624023 C51.26807901 60.53942878 51.98152833 64.18569599 52.67919922 67.83618164 C52.8907666 68.94300293 53.10233398 70.04982422 53.3203125 71.19018555 C54.35501166 76.89908312 54.97262877 82.2224515 54.74169922 88.02368164 C50.25828052 86.53478513 46.91996782 84.01428621 43.24169922 81.14868164 C36.26120795 75.85524586 28.90210541 71.49188643 21.23974609 67.26049805 C17.14614053 64.99523391 13.16329892 62.68794686 9.29638672 60.05102539 C4.2949094 56.65343216 -0.94173759 53.76991949 -6.25830078 50.89868164 C-7.19158203 50.38692383 -8.12486328 49.87516602 -9.08642578 49.34790039 C-13.91357876 46.72532706 -18.75287241 44.29951679 -23.79345703 42.1184082 C-29.18880036 39.72214042 -34.46599844 37.07499096 -39.75830078 34.46118164 C-40.35578125 34.17186768 -40.95326172 33.88255371 -41.56884766 33.58447266 C-43.31379473 32.73923432 -45.0518049 31.87972155 -46.78955078 31.01977539 C-47.81628906 30.51631592 -48.84302734 30.01285645 -49.90087891 29.49414062 C-52.25830078 28.02368164 -52.25830078 28.02368164 -53.25830078 25.02368164 C-50.92887691 23.43433515 -48.59504499 21.85220335 -46.25830078 20.27368164 C-45.60990234 19.83024414 -44.96150391 19.38680664 -44.29345703 18.92993164 C-40.36946703 16.28803738 -36.42234288 14.03251235 -32.16455078 11.9753418 C-29.25173002 10.52116975 -26.51749363 8.81067717 -23.75830078 7.08618164 C-22.64197266 6.39782227 -21.52564453 5.70946289 -20.37548828 5.00024414 C-18.52237577 3.8252129 -16.6862028 2.62151375 -14.89111328 1.35961914 C-14.22853516 0.89813477 -13.56595703 0.43665039 -12.88330078 -0.03881836 C-12.06732422 -0.6440332 -12.06732422 -0.6440332 -11.23486328 -1.26147461 C-7.2675036 -2.69631023 -3.7243226 -1.61011525 0 0 Z " fill="#000000" transform="translate(528.25830078125,243.976318359375)"/>
<path d="M0 0 C3.5734348 1.59176156 7.03252694 3.37844796 10.5 5.1875 C22.40010768 11.26546456 34.36100626 16.61504299 47 21 C47 21.99 47 22.98 47 24 C45.57324219 25.17578125 45.57324219 25.17578125 43.546875 26.3125 C42.41596436 26.95747437 42.41596436 26.95747437 41.26220703 27.61547852 C40.43317871 28.07237061 39.60415039 28.5292627 38.75 29 C37.89390137 29.48202881 37.03780273 29.96405762 36.15576172 30.46069336 C34.34671351 31.4763254 32.5346127 32.48653646 30.71972656 33.49169922 C28.14597261 34.91904679 25.58367548 36.36499296 23.0234375 37.81640625 C11.26935988 44.43217245 -0.75611289 50.34769008 -13 56 C-16.14131225 53.03199769 -18.10582772 49.62606093 -20.1875 45.875 C-20.77253296 44.82723389 -20.77253296 44.82723389 -21.36938477 43.75830078 C-24.23794325 38.54726968 -26.89845146 33.25368824 -29.4375 27.875 C-29.76709717 27.17745605 -30.09669434 26.47991211 -30.4362793 25.76123047 C-32.22172582 21.9049644 -33.73924718 18.06735333 -35 14 C-33.99582031 13.50371094 -32.99164063 13.00742187 -31.95703125 12.49609375 C-30.57544275 11.81005306 -29.19393851 11.12384267 -27.8125 10.4375 C-27.0901416 10.08051025 -26.3677832 9.72352051 -25.62353516 9.35571289 C-22.11591991 7.609616 -18.64891639 5.8322852 -15.25390625 3.875 C-14.13886719 3.235625 -13.02382813 2.59625 -11.875 1.9375 C-10.88242187 1.34839844 -9.88984375 0.75929688 -8.8671875 0.15234375 C-5.18861812 -1.32610035 -3.80150233 -1.16483088 0 0 Z " fill="#000000" transform="translate(295,586)"/>
</svg>
